<?xml version="1.0" encoding="UTF-8" standalone="no"?>
<!DOCTYPE svg PUBLIC "-//W3C//DTD SVG 1.1//EN" "http://www.w3.org/Graphics/SVG/1.1/DTD/svg11.dtd">
<svg width="100%" height="100%" viewBox="0 0 355.6309902026907 75.2923217546287" version="1.1" xmlns="http://www.w3.org/2000/svg" xmlns:xlink="http://www.w3.org/1999/xlink" xml:space="preserve" xmlns:serif="http://www.serif.com/">
  <defs id="SvgjsDefs1001">
    <linearGradient id="SvgjsLinearGradient1011">
      <stop id="SvgjsStop1012" stop-color="#147d6c" offset="0"></stop>
      <stop id="SvgjsStop1013" stop-color="#1effff" offset="1"></stop>
    </linearGradient>
  </defs>
  <g id="SvgjsG1007" featurekey="Df7oLJ-0" transform="matrix(0.7529218389052246,0,0,0.7529218389052246,0.698419562236426,0.7530137483093878)" fill="url(#SvgjsLinearGradient1011)">
    <g xmlns="http://www.w3.org/2000/svg" transform="translate(1572.7881,-718.09392)">
      <path d="M-1527.364,717.095c-0.603,0.024-1.129,0.416-1.325,0.986l-17.204,2.344l-0.43-0.715c-0.258-0.424-0.713-0.688-1.21-0.702 c-0.281-0.009-0.558,0.063-0.799,0.208l-3.293,1.992l-2.109,0.288c-0.8,0.108-1.361,0.844-1.253,1.645l0.013,0.092l-18.034,10.903 c-0.691,0.417-0.915,1.316-0.497,2.008c0.001,0.002,0.002,0.003,0.002,0.004l21.495,35.552c-0.215,1.196-0.057,2.169,0.032,2.571 c-0.685,8.353,1.238,17.851,1.361,18.453l-0.718,4.735c-2.778-0.903-3.829,1.888-3.829,1.888l-1.094,5.841 c0,0,15.237,4.788,22.218,11.906c0,0,4.658-1.597,5.889-4.608c-0.328-1.056-0.792-2.037-1.361-2.953l1.549-4.448 c3.488-2.108,5.352-6.465,6.496-10.275c1.077-3.589,1.418-6.472,1.481-7.04c0.829-0.771,1.941-1.992,3.346-3.641 c1.219-1.431,2.581-3.1,3.925-4.808l31.353-28.15c0.602-0.539,0.652-1.464,0.113-2.066c0,0-0.001-0.001-0.002-0.002l-17.61-19.611 l0.838-3.15c0.208-0.781-0.258-1.581-1.038-1.789l-24.988-6.644c-0.278-0.223-0.629-0.337-0.986-0.319 c-0.044,0.002-0.089,0.006-0.131,0.012l-0.025,0.004l-1.737-0.463C-1527.071,717.106-1527.218,717.089-1527.364,717.095 L-1527.364,717.095z M-1526.266,720.344l0.583,0.156c0.009,0.003,0.019,0.005,0.028,0.008l0.33,0.088 c0.008,0.001,0.015,0.002,0.021,0.004l24.078,6.404l-0.052,0.195c-0.042-0.01-0.085-0.018-0.128-0.024 c-0.048-0.006-0.096-0.01-0.144-0.012c-0.007,0-0.014,0-0.021,0c-0.072-0.002-0.144,0-0.216,0.008 c-0.025,0.003-0.051,0.007-0.075,0.013c-0.023,0.004-0.046,0.01-0.069,0.016c-0.019,0.003-0.036,0.008-0.056,0.012 c-0.006,0.001-0.011,0.002-0.016,0.004c-0.042,0.011-0.084,0.025-0.125,0.04c-0.024,0.01-0.05,0.021-0.074,0.032 c-0.021,0.007-0.041,0.015-0.061,0.024c-0.004,0.003-0.009,0.005-0.013,0.008c-0.043,0.022-0.086,0.046-0.127,0.072 c-0.004,0.002-0.008,0.005-0.013,0.008c-0.033,0.021-0.065,0.044-0.096,0.068c-0.027,0.021-0.055,0.044-0.08,0.068l-12.024,10.795 c-0.236-0.555-0.412-1.049-0.52-1.481c-0.253-1.011-0.331-2.092-0.236-3.241c-0.469,0.808-0.976,1.478-1.513,2.012 c-0.537,0.535-1.295,1.095-2.275,1.681c-0.643,0.379-1.589,0.817-2.843,1.313s-2.234,1.079-2.938,1.745 c-0.513,0.477-0.886,1.072-1.122,1.793c-0.294,0.897-0.231,1.771,0.188,2.619c0.42,0.848,1.069,1.413,1.948,1.701 c0.062,0.02,0.126,0.035,0.188,0.052l-5.358,4.811c-0.323-0.138-0.645-0.239-0.958-0.295c-0.683-0.123-1.291-0.142-1.988,0.208 c-0.538,0.269-0.571,0.428-0.74,0.623c-0.167,0.195-0.336,0.417-0.526,0.678c-0.38,0.523-0.833,1.203-1.35,2.004 c-0.357,0.553-0.833,1.355-1.238,2.004L-1526.266,720.344L-1526.266,720.344z M-1529.503,721.143l-4.033,15.163 c-2.536-2.412-2.96-4.014-3.029-4.511c0.048,0.608-0.059,2.916-3.521,7.095c-3.334,4.022-5.027,4.648-5.545,4.743 c0.527-0.019,2.315,0.224,6.436,3.434c0.918,0.715,1.661,1.382,2.272,1.992l-2.999,11.279c-0.154,0.583,0.063,1.201,0.551,1.557 l0,0c0.039,0.028,0.079,0.055,0.12,0.08c0.012,0.007,0.024,0.014,0.036,0.02c-0.339,0.568-0.682,1.137-1.006,1.685l-6.185,0.842 l-5.485-40.328l0.922-0.127c0.012-0.001,0.024-0.002,0.036-0.004h0.01l4.476-0.607c0.019-0.003,0.038-0.007,0.057-0.012 l16.888-2.299H-1529.503z M-1554.544,726.397l1.166,8.58c-0.427,0.105-0.844,0.277-1.238,0.523 c-2.011,1.256-2.611,3.919-1.341,5.953c0.655,1.049,1.682,1.72,2.798,1.957c0.274,0.057,0.614,0.168,0.975,0.315l0.127,0.962 l0.021,0.14c-0.254-0.048-0.513-0.074-0.771-0.076c-0.784-0.007-1.574,0.201-2.288,0.646c-2.012,1.256-2.615,3.923-1.346,5.957 c1.181,1.893,3.567,2.564,5.514,1.637l1.821,13.371c0.102,0.761,0.774,1.313,1.541,1.267c0.035-0.004,0.07-0.008,0.104-0.013 l4.368-0.595l-6.092,3.685l-21.052-34.822L-1554.544,726.397L-1554.544,726.397z M-1501.72,730.693l0.151,0.168l17.159,19.108 l-30.278,27.188l-12.983-14.461c0.127-0.339,0.243-0.654,0.392-1.038c0.954-2.468,1.26-4.426,1.089-6.032 c-0.095-0.892-0.363-1.66-0.731-2.308L-1501.72,730.693L-1501.72,730.693z M-1530.621,753.913c0.016-0.001,0.031,0,0.052,0.004 c0.208,0.038,0.467,0.14,0.7,0.328c0,0.001,0,0.003,0,0.004c0.01,0.004,0.011,0.008,0.016,0.012 c0.027,0.022,0.053,0.051,0.08,0.076c-1.047,2.365-2.096,3.076-2.823,3.298c-0.222,0.067-0.426,0.094-0.611,0.096 c0.354-0.567,0.695-1.111,1.006-1.593c0.501-0.777,0.939-1.427,1.262-1.872c0.114-0.159,0.189-0.251,0.267-0.348 c0.019,0,0.033-0.003,0.048-0.004H-1530.621z M-1529.072,756.572c-0.017,0.959-0.263,2.286-0.938,4.033 c-0.261,0.675-0.478,1.266-0.683,1.817c-0.011,0.026-0.022,0.053-0.032,0.08c0,0.006-0.019,0.045-0.048,0.124 c-0.074,0.196-0.151,0.405-0.215,0.583c-0.125,0.345-0.117,0.723,0.025,1.062c-1.552,4.321-1.384,4.395-4.968,9.77 c-0.189,0.285-0.232,0.644-0.115,0.966c0,0,1.019,2.851,1.593,6.072c0.287,1.611,0.456,3.308,0.347,4.72 c-0.108,1.411-0.502,2.466-1.101,3.007c-0.44,0.402-0.47,1.086-0.067,1.525c0.398,0.434,1.07,0.469,1.512,0.078 c1.226-1.102,1.677-2.74,1.809-4.443c0.131-1.702-0.065-3.542-0.372-5.262c-0.53-2.976-1.297-5.252-1.524-5.908 c3.118-4.707,3.345-5.476,4.738-9.319l3.05,3.397c-1.33,1.025-2.846,2.184-4.411,4.596c-0.308,0.452-0.191,1.067,0.261,1.377 c0.451,0.307,1.067,0.191,1.375-0.262c0.009-0.012,0.017-0.024,0.025-0.037c1.445-2.229,2.705-3.14,4.076-4.195l3.561,3.964 l-4.403,4.743c-0.374,0.397-0.356,1.024,0.041,1.399s1.024,0.357,1.4-0.04c0.004-0.005,0.008-0.01,0.012-0.014l4.275-4.608 l3.709,4.129c-0.777,0.959-1.538,1.883-2.247,2.715c-1.546,1.814-2.894,3.262-3.43,3.722l-0.351,0.299l-0.049,0.459 c0,0-0.336,3.312-1.453,7.03c-1.116,3.719-3.078,7.703-5.78,9.147l-0.396,0.212l-0.147,0.422l-1.186,3.41 c-4.938-5.427-13.679-7.968-17.93-9.194l0.798-5.267l0.028-0.203l-0.04-0.199c0,0-2.057-10.066-1.35-18.194l0.011-0.1 c0.262-0.002,0.518-0.075,0.742-0.211l5.122-3.1c0.016,0.598,0.512,1.067,1.108,1.052c0.392-0.011,0.746-0.232,0.928-0.579 c0,0,0.64-1.106,1.529-2.628l0.372-0.223c0.208-0.128,0.381-0.305,0.502-0.516c0.407-0.693,0.82-1.395,1.298-2.204 c0.011-0.021,0.021-0.042,0.031-0.064c0.726-1.226,1.512-2.536,2.296-3.84c0.533-0.885,1.061-1.754,1.574-2.591 c0.089,0.019,0.191,0.042,0.307,0.06c0.438,0.068,1.056,0.095,1.745-0.116c0.989-0.302,2.057-1.077,3.038-2.651L-1529.072,756.572z "></path>
      <path d="M-1500.541,758.235c1.494-1.659,1.519-4.212-0.013-5.902c-1.229-1.354-3.105-1.768-4.728-1.197 c0.728-1.559,0.499-3.468-0.728-4.822c-1.531-1.689-4.076-1.916-5.873-0.591c-0.12,0.088-0.236,0.183-0.35,0.285 c-3.965,3.594-1.426,10.157-2.796,13.96l0,0c3.921-0.99,10.202,2.18,14.167-1.415 C-1500.747,758.452-1500.641,758.346-1500.541,758.235L-1500.541,758.235z"></path>
    </g>
  </g>
  <g id="SvgjsG1008" featurekey="Ua4uQk-0" transform="matrix(1.8134282515003615,0,0,1.8134282515003615,87.82388601172858,10.373311068799064)" fill="#3a474d">
    <path d="M6.18 6 c3.14 0 5.22 1.9 5.22 4.82 c0 2.88 -2.08 4.6 -5.22 4.6 l-1.76 0 l0 4.58 l-3.22 0 l0 -14 l4.98 0 z M5.98 12.68 c1.3 0 2.2 -0.46 2.2 -1.86 c0 -1.38 -0.9 -1.86 -2.2 -1.86 l-1.56 0 l0 3.72 l1.56 0 z M16.28 5.859999999999999 l0 14.14 l-3.16 0 l0 -14.14 l3.16 0 z M25.8 9.6 l3.16 0 l0 10.4 l-3.16 0 l0 -1.04 c-0.14 0.36 -1.08 1.24 -2.68 1.24 c-2.38 0 -5.12 -1.7 -5.12 -5.42 c0 -3.58 2.74 -5.36 5.12 -5.36 c1.6 0 2.54 0.92 2.68 1.14 l0 -0.96 z M23.580000000000002 17.42 c1.3 0 2.36 -0.9 2.36 -2.64 c0 -1.68 -1.06 -2.58 -2.36 -2.58 c-1.36 0 -2.52 0.92 -2.52 2.58 c0 1.72 1.16 2.64 2.52 2.64 z M37.38 9.44 c1.94 0 3.92 1.3 3.92 4.6 l0 5.96 l-3.16 0 l0 -5.74 c0 -1.58 -0.54 -2.08 -1.54 -2.08 c-1.42 0 -2.24 1.38 -2.44 1.98 l0 5.84 l-3.16 0 l0 -10.4 l3.16 0 l0 1.8 c0.2 -0.5 1.26 -1.96 3.22 -1.96 z M49.6 9.44 c1.94 0 3.92 1.3 3.92 4.6 l0 5.96 l-3.16 0 l0 -5.74 c0 -1.58 -0.54 -2.08 -1.54 -2.08 c-1.42 0 -2.24 1.38 -2.44 1.98 l0 5.84 l-3.16 0 l0 -10.4 l3.16 0 l0 1.8 c0.2 -0.5 1.26 -1.96 3.22 -1.96 z M58.6 5.859999999999999 l0 2.66 l-3.16 0 l0 -2.66 l3.16 0 z M58.6 9.6 l0 10.4 l-3.16 0 l0 -10.4 l3.16 0 z M67.02000000000001 9.44 c1.94 0 3.92 1.3 3.92 4.6 l0 5.96 l-3.16 0 l0 -5.74 c0 -1.58 -0.54 -2.08 -1.54 -2.08 c-1.42 0 -2.24 1.38 -2.44 1.98 l0 5.84 l-3.16 0 l0 -10.4 l3.16 0 l0 1.8 c0.2 -0.5 1.26 -1.96 3.22 -1.96 z M80.34 9.6 l3.16 0 l0 10.4 c0 3.16 -3.2 4.12 -5.52 4.12 c-1.1 0 -2.1 -0.18 -2.74 -0.52 l0 -2.58 c0.64 0.34 1.6 0.48 2.74 0.48 c1.86 0 2.36 -0.96 2.36 -1.5 l0 -1.04 c-0.14 0.36 -1.08 1.24 -2.68 1.24 c-2.38 0 -5.12 -1.7 -5.12 -5.42 c0 -3.58 2.74 -5.36 5.12 -5.36 c1.6 0 2.54 0.92 2.68 1.14 l0 -0.96 z M78.12 17.42 c1.3 0 2.36 -0.9 2.36 -2.64 c0 -1.68 -1.06 -2.58 -2.36 -2.58 c-1.36 0 -2.52 0.92 -2.52 2.58 c0 1.72 1.16 2.64 2.52 2.64 z M96.70000000000002 6 c3.14 0 5.22 1.9 5.22 4.82 c0 2.88 -2.08 4.6 -5.22 4.6 l-1.76 0 l0 4.58 l-3.22 0 l0 -14 l4.98 0 z M96.50000000000001 12.68 c1.3 0 2.2 -0.46 2.2 -1.86 c0 -1.38 -0.9 -1.86 -2.2 -1.86 l-1.56 0 l0 3.72 l1.56 0 z M108.80000000000001 9.42 c2.36 0 5.48 1.78 5.48 5.42 c0 3.66 -3.12 5.36 -5.48 5.36 s-5.48 -1.7 -5.48 -5.36 c0 -3.64 3.12 -5.42 5.48 -5.42 z M108.80000000000001 12.2 c-1.2 0 -2.42 0.92 -2.42 2.64 c0 1.66 1.22 2.58 2.42 2.58 s2.44 -0.92 2.44 -2.58 c0 -1.72 -1.24 -2.64 -2.44 -2.64 z M123.2 20 l-3.38 -4.04 l-0.66 0.7 l0 3.34 l-3.16 0 l0 -3.78 l0 -10.36 l3.16 0 l0 6.94 l2.94 -3.2 l3.78 0 l-4.12 4.34 l5.04 6.06 l-3.6 0 z M133.38 9.42 c2.36 0 5.66 1.78 5 6.48 l-7.26 0 c0.36 1.08 1.3 1.64 2.56 1.64 c1.28 0 1.68 -0.28 2.4 -0.58 l1.74 1.68 c-0.92 0.9 -2.16 1.56 -4.26 1.56 c-2.58 0 -5.66 -1.78 -5.66 -5.36 c0 -3.64 3.12 -5.42 5.48 -5.42 z M133.38 12.120000000000001 c-0.9 0 -1.82 0.52 -2.22 1.56 l4.42 0 c-0.32 -1.04 -1.3 -1.56 -2.2 -1.56 z M146.85999999999999 9.44 c0.28 0 0.56 0 0.82 0.06 l0 3.02 c-0.24 -0.06 -0.52 -0.06 -0.72 -0.06 c-1.92 0 -3.46 1.38 -3.62 3.3 l0 4.24 l-3.16 0 l0 -10.4 l3.16 0 l0 2.54 c0.48 -1.56 1.68 -2.7 3.52 -2.7 z"></path>
  </g>
</svg>